HIERARCHY
ROOT Hips
{
	OFFSET 0.000000 0.000000 0.000000
	CHANNELS 6 Xposition Yposition Zposition Xrotation Yrotation Zrotation
	JOINT LeftUpLeg_virtual
	{
		OFFSET 0.000000 0.000000 0.000000
		CHANNELS 3 Xrotation Yrotation Zrotation
		JOINT LeftUpLeg
		{
			OFFSET 10.205400 -3.823500 0.155100
			CHANNELS 3 Xrotation Yrotation Zrotation
			JOINT LeftLeg
			{
				OFFSET 0.708757 -12.982077 0.567790
				CHANNELS 3 Xrotation Yrotation Zrotation
				JOINT LeftFoot
				{
					OFFSET -0.708756 -10.717838 -2.184338
					CHANNELS 3 Xrotation Yrotation Zrotation
					JOINT LeftToeBase
					{
						OFFSET 0.108149 -7.191104 7.560241
						CHANNELS 3 Xrotation Yrotation Zrotation
						JOINT LeftToe_End
						{
							OFFSET 0.070230 0.081724 4.490308
							CHANNELS 3 Xrotation Yrotation Zrotation
							End Site
							{
								OFFSET 0 0 0
							}
						}
					}
				}
			}
		}
	}
	JOINT RightUpLeg_virtual
	{
		OFFSET 0.000000 0.000000 0.000000
		CHANNELS 3 Xrotation Yrotation Zrotation
		JOINT RightUpLeg
		{
			OFFSET -10.205400 -3.823500 0.005500
			CHANNELS 3 Xrotation Yrotation Zrotation
			JOINT RightLeg
			{
				OFFSET -0.708756 -12.982134 0.610632
				CHANNELS 3 Xrotation Yrotation Zrotation
				JOINT RightFoot
				{
					OFFSET 0.708754 -10.717769 -1.945823
					CHANNELS 3 Xrotation Yrotation Zrotation
					JOINT RightToeBase
					{
						OFFSET -0.108140 -7.191069 7.372968
						CHANNELS 3 Xrotation Yrotation Zrotation
						JOINT RightToe_End
						{
							OFFSET -0.070227 0.081735 4.479403
							CHANNELS 3 Xrotation Yrotation Zrotation
							End Site
							{
								OFFSET 0 0 0
							}
						}
					}
				}
			}
		}
	}
	JOINT Spine_virtual
	{
		OFFSET 0.000000 0.000000 0.000000
		CHANNELS 3 Xrotation Yrotation Zrotation
		JOINT Spine
		{
			OFFSET 0.000000 6.876099 0.125700
			CHANNELS 3 Xrotation Yrotation Zrotation
			JOINT Spine1
			{
				OFFSET 0.000000 5.730043 0.104720
				CHANNELS 3 Xrotation Yrotation Zrotation
				JOINT Spine1_split
				{
					OFFSET 0.000000 5.730043 0.104720
					CHANNELS 3 Xrotation Yrotation Zrotation
					JOINT Spine2
					{
						OFFSET 0.000000 5.730043 0.104720
						CHANNELS 3 Xrotation Yrotation Zrotation
						JOINT Neck_virtual
						{
							OFFSET 0.000000 0.000000 0.000000
							CHANNELS 3 Xrotation Yrotation Zrotation
							JOINT Neck
							{
								OFFSET 0.000000 10.314075 0.188496
								CHANNELS 3 Xrotation Yrotation Zrotation
								JOINT Head
								{
									OFFSET 0.000000 7.643700 -2.377400
									CHANNELS 3 Xrotation Yrotation Zrotation
									JOINT HeadTop_End
									{
										OFFSET 0.000000 43.788605 -13.619600
										CHANNELS 3 Xrotation Yrotation Zrotation
										End Site
										{
											OFFSET 0 0 0
										}
									}
								}
							}
						}
						JOINT LeftShoulder_virtual
						{
							OFFSET 0.000000 0.000000 0.000000
							CHANNELS 3 Xrotation Yrotation Zrotation
							JOINT LeftShoulder
							{
								OFFSET 2.196100 4.412489 0.087492
								CHANNELS 3 Xrotation Yrotation Zrotation
								JOINT LeftShoulder_split
								{
									OFFSET 2.196100 4.412489 0.087492
									CHANNELS 3 Xrotation Yrotation Zrotation
									JOINT LeftArm
									{
										OFFSET 8.771219 -2.981674 -0.026999
										CHANNELS 3 Xrotation Yrotation Zrotation
										JOINT LeftForeArm
										{
											OFFSET 8.512804 0.000000 -0.000000
											CHANNELS 3 Xrotation Yrotation Zrotation
											JOINT LeftHand
											{
												OFFSET 18.484802 0.000000 -0.000000
												CHANNELS 3 Xrotation Yrotation Zrotation
												End Site
												{
													OFFSET 0 0 0
												}
											}
										}
									}
								}
							}
						}
						JOINT RightShoulder_virtual
						{
							OFFSET 0.000000 0.000000 0.000000
							CHANNELS 3 Xrotation Yrotation Zrotation
							JOINT RightShoulder
							{
								OFFSET -2.196100 4.412496 0.070690
								CHANNELS 3 Xrotation Yrotation Zrotation
								JOINT RightShoulder_split
								{
									OFFSET -2.196100 4.412496 0.070690
									CHANNELS 3 Xrotation Yrotation Zrotation
									JOINT RightArm
									{
										OFFSET -8.771282 -2.981682 -0.094208
										CHANNELS 3 Xrotation Yrotation Zrotation
										JOINT RightForeArm
										{
											OFFSET -8.494598 0.000000 0.000000
											CHANNELS 3 Xrotation Yrotation Zrotation
											JOINT RightHand
											{
												OFFSET -18.483803 0.000000 0.000001
												CHANNELS 3 Xrotation Yrotation Zrotation
												End Site
												{
													OFFSET 0 0 0
												}
											}
										}
									}
								}
							}
						}
					}
				}
			}
		}
	}
}
MOTION
Frames: 7
Frame Time: 0.03333333
-0.189504 32.933468 -0.536587 0.000000 0.000000 0.000000 0.105343 -30.517435 -0.924596 -19.855218 15.615995 19.306194 32.164949 6.417517 -5.058271 -14.384879 -5.356548 -3.375953 1.491382 -0.273315 -1.942263 0.000000 0.000000 0.000000 0.056361 -30.575390 -0.686837 -10.370922 -0.711334 -7.464610 17.112781 5.908137 0.868356 -15.327467 0.217965 6.428621 -2.971480 -0.229613 -1.822931 0.000000 0.000000 0.000000 0.799385 -28.427379 -1.129040 6.888969 -1.560299 0.028629 1.835237 -1.004707 2.638088 0.217125 -3.447052 0.336866 0.000000 0.000000 0.000000 2.406170 -0.338559 2.502234 -6.165667 18.174158 -8.569794 -1.766705 21.820048 4.152104 0.000000 0.000000 0.000000 2.011512 0.020699 2.762496 0.848713 -10.312240 -3.605365 0.391571 -3.745480 -1.910876 -61.397370 0.622449 -34.766404 23.021228 -63.762316 24.218102 0.000000 0.000000 0.000000 1.771929 -0.616877 2.124049 3.662844 7.245758 7.054654 -1.576245 -3.975882 2.323062 -1.390651 -0.774796 61.383463 16.239268 14.667881 -7.880707 0.000000 0.000000 0.000000 
-0.166460 32.888062 -0.629789 0.000000 0.000000 0.000000 -0.051975 -29.829372 -0.900252 -21.163377 16.185638 19.306660 32.522280 6.294406 -4.684592 -14.094770 -5.740426 -4.014057 1.108969 -0.292057 -1.707662 0.000000 0.000000 0.000000 0.154360 -29.870900 -0.597716 -9.905409 -0.847073 -7.599661 17.218408 5.467052 0.612746 -15.557296 -0.521239 8.237877 -5.063190 -0.265053 -2.061933 0.000000 0.000000 0.000000 0.575812 -26.833184 -0.743144 6.579410 -1.196103 -0.007262 2.091916 -0.771322 2.562444 -0.970345 -1.145706 0.412842 0.000000 0.000000 0.000000 2.126429 -0.226806 2.322190 -6.075971 17.153740 -8.104640 -2.699180 21.144833 4.670517 0.000000 0.000000 0.000000 2.169784 0.223051 2.623036 0.411030 -8.988899 -4.099478 -0.786647 -1.956513 -2.585996 -60.255874 3.512400 -33.993766 24.037299 -64.012157 24.899687 0.000000 0.000000 0.000000 1.734993 -0.380543 1.999953 3.646083 7.504526 7.618007 -1.621206 -4.049011 1.503434 -0.266486 -0.475503 60.618434 16.714122 15.405307 -8.073292 0.000000 0.000000 0.000000 
-0.181365 32.742138 -0.581900 0.000000 0.000000 0.000000 -0.036742 -26.803139 -0.599315 -23.597819 15.255887 18.744283 33.609783 5.821016 -4.287351 -12.964860 -6.704694 -4.373482 0.518709 -0.350633 -1.338788 0.000000 0.000000 0.000000 0.361967 -26.493513 -0.343338 -7.474495 -2.023032 -7.574945 17.594888 3.494439 0.198863 -18.413907 -2.531324 8.623650 -4.416738 -0.431130 -1.730005 0.000000 0.000000 0.000000 0.729750 -23.444314 -0.172811 5.951735 -0.449956 0.084879 2.478153 -0.193974 2.410417 -1.665559 0.437083 0.289915 0.000000 0.000000 0.000000 2.045818 0.210860 2.122913 -6.692197 14.655663 -7.309032 -3.417375 18.281042 4.559898 0.000000 0.000000 0.000000 2.399684 0.673523 2.336392 -0.120928 -7.011486 -4.766713 -1.391970 -1.072486 -2.300435 -61.295736 8.652163 -32.341513 25.299405 -66.886984 25.545358 0.000000 0.000000 0.000000 1.744185 0.190090 1.845794 3.694011 8.124777 8.508196 -1.747651 -3.751424 0.673204 1.419758 -1.628209 60.135847 17.856222 17.268993 -8.813402 0.000000 0.000000 0.000000 
-0.207523 32.557400 -0.356243 0.000000 0.000000 0.000000 0.171170 -21.619311 -0.144468 -26.659222 12.962026 17.490965 34.665372 5.242464 -3.915315 -10.715727 -8.063544 -4.265676 0.149867 -0.427791 -0.992008 0.000000 0.000000 0.000000 0.631322 -20.931564 0.009526 -3.680814 -4.081185 -7.438056 17.742349 0.442630 -0.233706 -22.774462 -5.147953 7.941610 -2.043696 -0.492558 -1.061764 0.000000 0.000000 0.000000 1.205792 -18.637976 0.368641 4.975999 0.672479 0.257186 2.932424 0.714566 2.112924 -1.446310 1.158128 0.053949 0.000000 0.000000 0.000000 2.165091 1.000479 1.837405 -7.841904 10.781719 -6.112947 -3.830444 13.477782 3.808946 0.000000 0.000000 0.000000 2.677428 1.411991 1.933763 -0.675467 -4.623204 -5.386542 -0.925640 -1.669595 -0.781610 -64.255162 14.053902 -30.066745 26.720861 -71.616207 26.054467 0.000000 0.000000 0.000000 1.840537 1.090137 1.588793 3.756133 8.935359 9.704285 -1.999510 -3.356045 0.042899 3.188417 -3.871942 60.000849 19.432479 19.509809 -9.941255 0.000000 0.000000 0.000000 
-0.222541 32.408028 -0.011421 0.000000 0.000000 0.000000 0.447560 -14.894747 0.292416 -29.832897 9.322226 15.458014 35.063954 4.796805 -3.581309 -7.408385 -9.508236 -3.628044 0.230568 -0.507339 -0.706780 0.000000 0.000000 0.000000 0.968766 -13.910056 0.379144 0.888010 -6.614163 -7.288965 17.700387 -2.558187 -0.439333 -26.684024 -7.404979 7.709135 -0.791084 -0.303852 -0.308635 0.000000 0.000000 0.000000 1.749908 -12.805041 0.735786 3.671585 2.145408 0.458554 3.343656 1.924305 1.642017 -0.410758 1.314860 0.140810 0.000000 0.000000 0.000000 2.483641 2.126233 1.437847 -9.301866 5.648943 -4.335470 -3.866639 7.285266 2.452284 0.000000 0.000000 0.000000 2.933437 2.464457 1.443228 -1.162914 -2.047781 -5.908847 0.039276 -2.926290 1.206916 -68.185826 18.502392 -27.556301 27.116823 -77.039999 25.366973 0.000000 0.000000 0.000000 2.040449 2.279517 1.205417 3.756254 9.751902 11.134089 -2.692740 -2.956316 -0.235953 4.738962 -6.470252 59.982373 21.137561 21.331570 -11.283663 0.000000 0.000000 0.000000 
-0.235672 32.282810 0.363693 0.000000 0.000000 0.000000 0.741449 -7.387455 0.547342 -32.561571 4.649847 12.769427 34.161539 4.516715 -3.273018 -3.606908 -10.818717 -2.504018 0.701806 -0.568046 -0.345982 0.000000 0.000000 0.000000 1.204368 -6.494403 0.595550 5.591026 -9.140899 -7.152634 17.711959 -4.731586 -0.353419 -28.290966 -8.827449 9.133398 -2.765951 0.077672 0.290460 0.000000 0.000000 0.000000 2.111154 -6.400038 0.805081 2.124831 3.883205 0.714639 3.637233 3.359896 1.053801 0.755862 1.483316 0.206819 0.000000 0.000000 0.000000 2.930877 3.512148 0.938959 -10.724439 -0.537115 -1.871312 -3.432174 0.260054 0.574566 0.000000 0.000000 0.000000 3.122728 3.799633 0.921992 -1.519635 0.474051 -6.264921 1.276459 -4.389222 3.120698 -71.799256 21.225562 -25.316301 23.713278 -82.236434 20.882234 0.000000 0.000000 0.000000 2.337021 3.673334 0.706498 3.615064 10.414400 12.729729 -3.844672 -2.447617 -0.480008 6.064473 -8.666976 59.673730 22.741393 22.430838 -12.680025 0.000000 0.000000 0.000000 
-0.203189 32.180882 0.799654 0.000000 0.000000 0.000000 0.889949 0.518144 0.483503 -34.547462 -0.565194 9.677855 31.864963 4.124698 -3.036620 0.115183 -12.072678 -1.432529 1.145805 -0.600977 0.172746 0.000000 0.000000 0.000000 1.226872 0.922034 0.562671 10.124012 -11.192476 -6.929352 17.898125 -5.985370 -0.035821 -27.021191 -9.430109 12.298466 -7.875467 0.374705 0.751073 0.000000 0.000000 0.000000 2.052422 0.588749 0.655336 0.442666 5.719662 1.088402 3.775545 4.915025 0.460032 1.495535 1.415407 0.261256 0.000000 0.000000 0.000000 3.374102 5.011834 0.379412 -11.829675 -7.407150 1.189560 -2.677948 -7.117791 -1.645962 0.000000 0.000000 0.000000 3.240647 5.317762 0.442880 -1.707297 2.723529 -6.350986 2.633925 -5.892801 4.634780 -74.229813 22.516268 -23.626741 5.807805 -85.893536 2.078471 0.000000 0.000000 0.000000 2.759280 5.175841 0.143356 3.350932 10.796775 14.187142 -5.201270 -1.912391 -0.783994 7.401728 -9.742563 58.775103 24.252929 22.764529 -14.137665 0.000000 0.000000 0.000000 
